<?xml version="1.0" encoding="utf-8"?>
<!-- Generator: Adobe Illustrator 27.3.1, SVG Export Plug-In . SVG Version: 6.00 Build 0)  -->
<svg version="1.1" id="ICPSR" xmlns="http://www.w3.org/2000/svg" xmlns:xlink="http://www.w3.org/1999/xlink" x="0px" y="0px"
	 viewBox="0 0 266.3 36.9" style="enable-background:new 0 0 266.3 36.9;" xml:space="preserve">
<style type="text/css">
	.st0{fill:#FFFFFF;}
	.st1{fill:#FFCF01;}
</style>
<g>
	<g>
		<path class="st0" d="M137.8,12.1h-1.4V1.3h1.4V12.1z"/>
		<path class="st0" d="M147.9,1.3v10.8H146l-4.3-9.4h0v9.4h-1.2V1.3h2l4.2,9.3h0V1.3H147.9z"/>
		<path class="st0" d="M151.5,8.9v0.3c0,1.5,0.9,1.9,1.8,1.9c1.1,0,1.9-0.5,1.9-1.8c0-2.4-4.9-2.1-4.9-5.4c0-1.9,1.4-2.9,3.2-2.9
			c2,0,3.1,1,3,3.2h-1.4c0-1.2-0.4-2-1.7-2c-0.8,0-1.7,0.4-1.7,1.6c0,2.4,4.9,2,4.9,5.5c0,2.3-1.6,3-3.4,3c-3.2,0-3.2-2.4-3.2-3.5
			H151.5z"/>
		<path class="st0" d="M165.3,1.3v1.2h-2.8v9.6h-1.4V2.5h-2.9V1.3H165.3z"/>
		<path class="st0" d="M168.6,12.1h-1.4V1.3h1.4V12.1z"/>
		<path class="st0" d="M177.7,1.3v1.2h-2.8v9.6h-1.4V2.5h-2.9V1.3H177.7z"/>
		<path class="st0" d="M179.5,1.3h1.4v6.9c0,2.4,0.7,3,2,3c1.3,0,2-0.6,2-3V1.3h1.4v6.9c0,3-1.1,4.2-3.4,4.2c-2.3,0-3.4-1.2-3.4-4.2
			V1.3z"/>
		<path class="st0" d="M195.3,1.3v1.2h-2.8v9.6H191V2.5h-2.8V1.3H195.3z"/>
		<path class="st0" d="M197.1,12.1V1.3h5.6v1.2h-4.2v3.5h3.9v1.2h-3.9v3.7h4.3v1.2H197.1z"/>
		<path class="st0" d="M207.9,12.1V1.3h5.4v1.2h-4v3.5h3.8v1.2h-3.8v5H207.9z"/>
		<path class="st0" d="M215,8.1V4.6c0-2.2,1.1-3.5,3.4-3.5c2.3,0,3.4,1.4,3.4,3.5v3.6c0,3-1.1,4.2-3.4,4.2
			C216.1,12.3,215,11.1,215,8.1z M220.4,8.2V4.5c0-2.3-1.6-2.3-2-2.3s-2,0.1-2,2.3v3.7c0,2.4,0.7,3,2,3
			C219.7,11.2,220.4,10.6,220.4,8.2z"/>
		<path class="st0" d="M225.6,7.1v5h-1.4V1.3h3.7c1.9,0,2.6,1.3,2.6,2.7c0,1.3-0.7,2.2-2,2.5v0c1.2,0.2,1.7,0.6,1.8,2.8
			c0,0.5,0.2,2.2,0.4,2.8h-1.4c-0.4-0.8-0.3-2.2-0.4-3.6c-0.1-1.3-1.2-1.4-1.6-1.4H225.6z M225.6,5.9h2.1c1,0,1.5-0.9,1.5-1.8
			c0-0.8-0.4-1.7-1.5-1.7h-2.1V5.9z"/>
		<path class="st0" d="M137.3,22.9v0.3c0,1.5,0.9,1.9,1.8,1.9c1.1,0,1.9-0.5,1.9-1.8c0-2.4-4.9-2.1-4.9-5.4c0-1.9,1.4-2.9,3.2-2.9
			c2,0,3.1,1,3,3.2H141c0-1.2-0.4-2-1.7-2c-0.8,0-1.7,0.4-1.7,1.6c0,2.4,4.9,2,4.9,5.5c0,2.3-1.6,3-3.4,3c-3.2,0-3.2-2.4-3.2-3.5
			H137.3z"/>
		<path class="st0" d="M144.7,22.1v-3.6c0-2.2,1.1-3.5,3.4-3.5c2.3,0,3.4,1.4,3.4,3.5v3.6c0,3-1.1,4.2-3.4,4.2
			C145.8,26.3,144.7,25.1,144.7,22.1z M150.1,22.2v-3.7c0-2.3-1.6-2.3-2-2.3c-0.4,0-2,0.1-2,2.3v3.7c0,2.4,0.7,3,2,3
			C149.4,25.2,150.1,24.6,150.1,22.2z"/>
		<path class="st0" d="M158.7,18.2c0-0.6,0-1.2-0.3-1.6c-0.3-0.3-0.9-0.5-1.2-0.5c-1.1,0-1.6,0.7-1.6,0.8c0,0.1-0.3,0.4-0.3,2.2v2.9
			c0,2.7,0.9,3,1.9,3c0.4,0,1.7-0.1,1.7-2.3h1.4c0.1,3.4-2.4,3.4-3.1,3.4c-1.3,0-3.4-0.1-3.4-4.3V19c0-3.1,1.3-3.9,3.5-3.9
			c2.1,0,3,1.1,2.8,3.2H158.7z"/>
		<path class="st0" d="M163.9,26.1h-1.4V15.3h1.4V26.1z"/>
		<path class="st0" d="M169.3,15.3h1.8l3.5,10.8H173l-0.8-2.6h-4.2l-0.8,2.6h-1.4L169.3,15.3z M170.1,16.5L170.1,16.5l-1.7,5.8h3.5
			L170.1,16.5z"/>
		<path class="st0" d="M176.5,26.1V15.3h1.4v9.6h4v1.2H176.5z"/>
		<path class="st0" d="M187.8,21.1v5h-1.4V15.3h3.7c1.9,0,2.6,1.3,2.6,2.7c0,1.3-0.7,2.2-2,2.5v0c1.2,0.2,1.7,0.6,1.8,2.8
			c0,0.5,0.2,2.2,0.4,2.8h-1.4c-0.4-0.8-0.3-2.2-0.4-3.6c-0.1-1.3-1.2-1.4-1.6-1.4H187.8z M187.8,19.9h2.1c1,0,1.5-0.9,1.5-1.8
			c0-0.8-0.4-1.7-1.5-1.7h-2.1V19.9z"/>
		<path class="st0" d="M195,26.1V15.3h5.6v1.2h-4.2v3.5h3.9v1.2h-3.9v3.8h4.3v1.2H195z"/>
		<path class="st0" d="M203.9,22.9v0.3c0,1.5,0.9,1.9,1.8,1.9c1.1,0,1.9-0.5,1.9-1.8c0-2.4-4.9-2.1-4.9-5.4c0-1.9,1.4-2.9,3.2-2.9
			c2,0,3.1,1,3,3.2h-1.4c0-1.2-0.4-2-1.7-2c-0.8,0-1.7,0.4-1.7,1.6c0,2.4,4.9,2,4.9,5.5c0,2.3-1.6,3-3.4,3c-3.2,0-3.2-2.4-3.2-3.5
			H203.9z"/>
		<path class="st0" d="M211.2,26.1V15.3h5.6v1.2h-4.2v3.5h3.9v1.2h-3.9v3.8h4.3v1.2H211.2z"/>
		<path class="st0" d="M221.9,15.3h1.8l3.5,10.8h-1.5l-0.8-2.6h-4.2l-0.8,2.6h-1.4L221.9,15.3z M222.8,16.5L222.8,16.5l-1.7,5.8h3.5
			L222.8,16.5z"/>
		<path class="st0" d="M230.5,21.1v5h-1.4V15.3h3.7c1.9,0,2.6,1.3,2.6,2.7c0,1.3-0.7,2.2-2,2.5v0c1.2,0.2,1.7,0.6,1.8,2.8
			c0,0.5,0.2,2.2,0.4,2.8h-1.4c-0.4-0.8-0.3-2.2-0.4-3.6c-0.1-1.3-1.2-1.4-1.6-1.4H230.5z M230.5,19.9h2.1c1,0,1.5-0.9,1.5-1.8
			c0-0.8-0.4-1.7-1.5-1.7h-2.1V19.9z"/>
		<path class="st0" d="M242.4,18.2c0-0.6,0-1.2-0.3-1.6c-0.3-0.3-0.9-0.5-1.2-0.5c-1.1,0-1.6,0.7-1.6,0.8c0,0.1-0.3,0.4-0.3,2.2v2.9
			c0,2.7,0.9,3,1.9,3c0.4,0,1.7-0.1,1.7-2.3h1.4c0.1,3.4-2.4,3.4-3.1,3.4c-1.3,0-3.4-0.1-3.4-4.3V19c0-3.1,1.3-3.9,3.5-3.9
			c2.1,0,3,1.1,2.8,3.2H242.4z"/>
		<path class="st0" d="M246.2,26.1V15.3h1.4v4.7h3.8v-4.7h1.4v10.8h-1.4v-5h-3.8v5H246.2z"/>
	</g>
	<rect x="59.3" y="1.2" class="st0" width="0.5" height="34.7"/>
	<path class="st1" d="M25.3,29.8l-9.9-13.6v9.9h3.9v9.7H1.1v-9.7h3.7V11H1.1V1.2h14.3l9.9,13.7l9.9-13.7h14.3V11h-3.7v15.2h3.7v9.7
		H31.3v-9.7h3.9v-9.9L25.3,29.8z"/>
	<g>
		<path class="st0" d="M69.7,1.2h3.2v34.7h-3.2V1.2z"/>
		<path class="st0" d="M84.4,5.8c0-1.5-0.5-2.2-1.8-2.2c-1.2,0-1.8,0.7-1.8,2.2v25.4c0,1.5,0.5,2.2,1.8,2.2c1.2,0,1.8-0.7,1.8-2.2
			v-4.8h3.2v4.9c0,2.9-1.6,4.8-4.9,4.8s-4.9-1.9-4.9-4.8V5.7c0-2.9,1.6-4.8,4.9-4.8s4.9,1.9,4.9,4.8v4.6h-3.2V5.8z"/>
		<path class="st0" d="M91.1,1.2h5c4.1,0,5.3,1.3,5.3,5.3V15c0,3.9-1.2,5.3-5.3,5.3h-1.9v15.6h-3.2V1.2z M95.8,17.6
			c1.4,0,2.4-0.4,2.4-2.2V6.1c0-1.8-1-2.2-2.4-2.2h-1.5v13.7H95.8z"/>
		<path class="st0" d="M110.5,6c0-1.3-0.3-2.4-1.8-2.4c-1.5,0-1.8,1-1.8,2.4v3.6c0,1.1,0.2,2.2,0.7,3.1l5,8.6
			c0.7,1.2,1.2,2.7,1.2,4.2v5.5c0,3.3-1.9,5.1-5.1,5.1c-3.5,0-5.2-1.6-5.2-5.1v-4.8h3.2v4.6c0,1.6,0.6,2.6,2,2.6
			c1.3,0,1.9-1,1.9-2.6V26c0-1.2-0.2-2.1-0.9-3.3l-4.7-8.1c-0.9-1.5-1.3-2.6-1.3-4.4V6c0-3.4,1.8-5.1,5-5.1c3.6,0,5,1.7,5,4.8v4.4
			h-3.2V6z"/>
		<path class="st0" d="M125.5,21.3c0-1.7-1-2.1-2.5-2.1h-2.1v16.7h-3.2V1.2h5.9c3,0,4.9,0.5,4.9,4V14c0,2.7-1,3.6-3.5,3.7v0.1
			c2.3,0.1,3.6,0.8,3.6,3.2v14.8h-3.2V21.3z M123,16.5c1.5,0,2.4-0.4,2.4-2.5V6.3c0-2-1.1-2.4-2.7-2.4h-1.8v12.6H123z"/>
	</g>
	<path class="st0" d="M255.5,35.9v-0.3c0.4,0,0.8-0.1,0.8-0.4c0-0.1,0-0.3-0.1-0.4l-0.2-0.6h-2.2l-0.2,0.5c0,0.1-0.1,0.3-0.1,0.4
		c0,0.5,0.5,0.5,0.9,0.5v0.3h-2.6v-0.3c0.7,0,0.9-0.2,1.1-0.8l1.7-4.7l-0.1-0.2c0.7-0.2,0.9-0.4,1.3-0.6c0.1,0.4,0.1,0.5,0.3,0.9
		l1.4,4.3c0.3,0.8,0.4,1,1,1v0.3H255.5z M254.9,30.8l-0.9,2.6h1.8L254.9,30.8z M232.7,34.5c-0.3,0.5-1,1.6-2.7,1.6
		c-1.9,0-3.2-1.4-3.2-3.3c0-1.7,1.1-3.4,3.2-3.4c1.1,0,1.7,0.5,2.1,0.8l0.4-0.4l0,1.9l-0.3,0.1c-0.1-0.4-0.3-0.7-0.7-1.1
		c-0.2-0.2-0.7-0.6-1.3-0.6c-1.2,0-2.1,0.9-2.1,2.6c0,1.4,0.7,2.7,2.2,2.7c1.1,0,1.5-0.6,1.9-1.1L232.7,34.5z M233.8,35.9v-0.3
		c0.7-0.1,0.7-0.2,0.7-0.8c0-0.2,0-0.5,0-0.7v-2.7c0-0.4,0-0.8,0-1c0-0.4-0.2-0.4-0.7-0.5v-0.3h2.7v0.3c-0.5,0.1-0.7,0.1-0.8,0.4
		c0,0.2-0.1,0.7-0.1,1.1v0.9c0.5,0,0.9,0,1.5,0c0.5,0,1,0,1.5,0v-1.1c0-1.2,0-1.2-0.9-1.3v-0.3h2.8v0.3c-0.7,0.1-0.7,0.1-0.7,1.3
		v2.7c0,0.2,0,1.1,0,1.2c0,0.3,0.2,0.4,0.7,0.4v0.3h-2.8v-0.3c0.6-0.1,0.8-0.1,0.9-0.5c0-0.2,0-0.4,0-0.9v-1.2c-0.5,0-0.9,0-1.5,0
		c-0.6,0-1,0-1.5,0v1.2c0,1.3,0,1.3,0.8,1.4v0.3H233.8z M241.7,35.9v-0.3c0.6-0.1,0.8-0.2,0.8-0.8v-0.8v-2.6c0-1.3,0-1.4-0.8-1.5
		v-0.3h2.7v0.3c-0.8,0.1-0.8,0.1-0.8,1.5v2.6c0,0.2,0,0.9,0,1.1c0,0.4,0.2,0.5,0.7,0.5v0.3H241.7z M223.5,35.9v-0.3
		c0.6-0.1,0.8-0.2,0.8-0.8v-0.8v-2.6c0-1.3,0-1.4-0.8-1.5v-0.3h2.6v0.3c-0.8,0.1-0.8,0.1-0.8,1.5v2.6c0,0.2,0,0.9,0,1.1
		c0,0.4,0.2,0.5,0.7,0.5v0.3H223.5z M219.5,35.9v-0.3c0.8-0.1,0.8-0.1,0.8-1.3V31L218,36h-0.6l-2.1-5l0,3.8c0,0.6,0.1,0.7,0.8,0.8
		v0.3h-2.2v-0.3c0.5,0,0.7-0.1,0.7-0.5c0-0.2,0-0.7,0.1-1.1l0.1-2.7c0-0.2,0-0.5,0-0.7c0-0.6-0.1-0.7-0.7-0.7v-0.3h2l2,4.8l2.2-4.8
		h1.9v0.4c-0.8,0-0.8,0.1-0.8,1.1v2.6c0,0.4,0,1,0,1.3c0,0.5,0.2,0.6,0.7,0.6v0.3H219.5z M258.9,35.9v-0.3c0.5,0,0.7,0,0.8-0.4
		c0.1-0.4,0.1-4.2,0.1-4.9c-0.4-0.3-0.5-0.4-0.9-0.4v-0.3h1.9c0.5,0.8,0.6,0.9,1.6,2.1l1.8,2.2v-2.9c0-1,0-1.1-1-1.1v-0.3h2.5v0.3
		c-0.7,0-0.8,0.2-0.8,1.2l-0.1,4.9h-0.4l-0.6-0.7c-0.3-0.4-0.6-0.7-0.9-1.1l-2.5-3.1v3.3c0,1,0.1,1.1,1,1.2v0.3H258.9z M205.7,32.7
		c0,2.2-1.5,3.4-3.2,3.4c-1.9,0-3.3-1.3-3.3-3.4c0-1.7,1.2-3.3,3.2-3.3C204.3,29.4,205.7,30.7,205.7,32.7z M202.5,35.5
		c0.4,0,0.9-0.2,1.3-0.8c0.4-0.7,0.5-1.3,0.5-2.2c0-0.8-0.3-1.5-0.7-2c-0.2-0.2-0.6-0.5-1.1-0.5c-0.5,0-0.9,0.3-1.1,0.6
		c-0.5,0.5-0.7,1.2-0.7,2.1c0,0.8,0.1,1.5,0.6,2.1C201.6,35.3,202.1,35.5,202.5,35.5z M206.3,35.5v0.4h2.6v-0.4
		c-0.7-0.1-0.7-0.1-0.8-0.8l0-1.8h0.7c0.7,0,1.1,0.1,1.1,0.8h0.3v-2.1H210c0,0.7-0.2,0.8-1,0.8h-0.8v-2.2c0.2,0,0.4,0,0.8,0
		c1.2,0,1.7,0,1.8,1h0.3l-0.1-1.6h-4.7v0.3c0.5,0,0.7,0.1,0.7,0.4c0,0.2,0.1,0.9,0.1,1.2v2.2c0,0.2,0,0.9,0,1.1
		C207,35.4,207,35.5,206.3,35.5z M151.4,35.9v-0.3c0.6-0.1,0.8-0.2,0.8-0.8v-0.8v-2.6c0-1.3,0-1.4-0.8-1.5v-0.3h2.7v0.3
		c-0.7,0.1-0.7,0.1-0.7,1.5v2.6c0,0.2,0,0.9,0,1.1c0,0.4,0.2,0.5,0.7,0.5v0.3H151.4z M179.6,35.9v-0.3c0.6-0.1,0.8-0.2,0.8-0.8v-0.8
		v-2.6c0-1.3,0-1.4-0.8-1.5v-0.3h2.6v0.3c-0.8,0.1-0.8,0.1-0.8,1.5v2.6c0,0.2,0,0.9,0,1.1c0,0.4,0.2,0.5,0.7,0.5v0.3H179.6z
		 M143.7,35.9v-0.3c0.5,0,0.7,0,0.8-0.4c0.1-0.4,0.1-4.2,0.1-4.9c-0.4-0.3-0.5-0.4-0.9-0.4v-0.3h1.9c0.5,0.8,0.7,0.9,1.6,2.1
		l1.8,2.2v-2.9c0-1,0-1.1-1-1.1v-0.3h2.5v0.3c-0.7,0-0.8,0.2-0.8,1.2l-0.1,4.9h-0.4l-0.6-0.7c-0.3-0.4-0.6-0.7-0.9-1.1l-2.5-3.1v3.3
		c0,1,0.1,1.1,1,1.2v0.3H143.7z M174.3,33.9l0.3,0c0.4,1,0.9,1.6,1.9,1.6c0.7,0,1.3-0.3,1.3-1c0-0.7-0.7-1-1-1.1
		c-0.3-0.1-0.5-0.2-0.8-0.3c-0.5-0.2-1.5-0.6-1.5-1.8c0-1.2,0.9-1.9,2-1.9c0.4,0,0.9,0.1,1.5,0.4l0.4-0.3l0.2,1.9l-0.3,0.1
		c-0.1-0.4-0.2-0.6-0.4-0.9c-0.3-0.4-0.7-0.6-1.2-0.6c-0.7,0-1.1,0.3-1.1,0.8c0,0.8,0.8,1,1.5,1.2c0.4,0.1,0.7,0.2,0.9,0.4
		c0.5,0.3,0.9,0.9,0.9,1.6c0,1.1-0.9,2-2.2,2c-0.9,0-1.4-0.3-1.7-0.5l-0.5-0.4L174.3,33.9z M184.8,35.9v-0.3c0.6,0,0.8-0.2,0.8-0.7
		v-4.7h-0.8c-0.7,0-1.2,0-1.3,1.1h-0.3l0.1-1.8h5.8l0.1,1.8h-0.3c-0.1-1.1-0.5-1.1-1.3-1.1h-0.8v4.7c0,0.5,0.2,0.7,0.7,0.7v0.3
		H184.8z M138.8,29.5v0.3c-0.8,0.1-0.8,0.1-0.9,1.4v1.5c0,0.8,0,1.4,0.4,2c0.3,0.5,0.9,0.5,1.2,0.5c0.9,0,1.4-0.5,1.6-1.2
		c0.2-0.6,0.2-1.7,0.2-2.5c0-0.2,0-1,0-1.2c0-0.6-0.3-0.6-0.9-0.6v-0.3h2.4v0.3c-0.6,0-0.7,0.1-0.8,0.8c0,0.2-0.1,1.9-0.1,2.2
		c0,0.5,0,1-0.2,1.4c-0.4,1.7-2.1,1.8-2.5,1.8c-0.4,0-1.1-0.1-1.7-0.5c-0.9-0.6-1-1.6-1-2.6v-1.4c0-0.7,0-1,0-1.2
		c-0.1-0.4-0.3-0.5-0.7-0.5v-0.3H138.8z M161.4,29.5v0.3c-0.6,0.1-0.7,0.3-1.2,1.5l-1.9,4.6h-0.3l-1.7-4.7c-0.4-1.2-0.5-1.4-1.1-1.5
		v-0.3h3v0.3c-0.5,0-0.8,0-0.8,0.4c0,0.2,0,0.3,0.2,0.9l1.1,3.2l1.3-3.4c0.1-0.2,0.2-0.5,0.2-0.7c0-0.5-0.5-0.5-0.8-0.5v-0.3H161.4z
		 M191.7,35.9v-0.3c0.5-0.1,0.7-0.1,0.8-0.2c0.1-0.1,0.1-0.3,0.2-1v-1.1l-1.7-2.6c-0.5-0.7-0.5-0.7-1.1-0.7v-0.4h3.3v0.4
		c-0.7,0-1,0-1,0.3c0,0.2,0.1,0.4,0.3,0.6l1,1.6l0.9-1.6c0.2-0.3,0.3-0.5,0.3-0.7c0-0.3-0.3-0.3-0.7-0.3v-0.4h2.5v0.4
		c-0.6,0-0.8,0.2-1.6,1.4l-1,1.7v1.3c0,1.2,0,1.2,1,1.3v0.3H191.7z M166.9,35.9c0-0.5,0.1-1.2,0.1-1.7h-0.3
		c-0.2,1.1-0.9,1.1-1.8,1.1c-0.8,0-1-0.2-1-0.6v-1.8h0.7c0.8,0,1,0.1,1,0.8h0.3v-2.1h-0.3c-0.1,0.6-0.2,0.8-1,0.8h-0.7v-2.2h0.8
		c1.1,0,1.5,0.1,1.6,0.9h0.3l0-1.5H162v0.3c0.5,0,0.7,0.1,0.7,0.4c0,0.2,0.1,0.9,0.1,1.2v2.2c0,0.2,0,0.9,0,1.1
		c0,0.7-0.1,0.8-0.8,0.8v0.4H166.9z M251.4,33.1v0.3c-0.6,0-0.6,0.2-0.6,1.4v0.5c-0.5,0.3-1.2,0.8-2.5,0.8c-2.2,0-3.2-1.7-3.2-3.3
		c0-2,1.4-3.4,3.1-3.4c1.1,0,1.7,0.4,2.2,0.7l0.3-0.4l0,2l-0.3,0c-0.1-0.4-0.3-0.8-0.8-1.3c-0.2-0.2-0.6-0.5-1.3-0.5
		c-1.1,0-2,0.9-2,2.8c0,1.5,0.7,2.7,2,2.7c0.7,0,1.1-0.5,1.1-0.5c0.1-0.2,0.1-0.3,0.1-0.6c0-0.8-0.1-0.8-0.8-0.9v-0.3H251.4z
		 M169.8,32.4c0.2,0,0.4,0.1,0.6,0.1c0.7,0,1.3-0.6,1.3-1.1c0-0.7-0.3-1.4-1.5-1.4c-0.2,0-0.3,0-0.4,0V32.4z M169.8,33.8
		c0,1.5,0,1.7,0.8,1.7v0.4H168v-0.4c0.7-0.1,0.8-0.2,0.8-0.9c0-0.3,0-0.6,0-0.8v-2.3c0-0.8,0-1,0-1.2c0-0.4-0.2-0.4-0.7-0.5v-0.3
		l2.9,0c1.6,0,2.1,0.8,2.1,1.6c0,0.6-0.4,1.4-1.3,1.7l1.1,2c0.4,0.8,0.6,0.9,1.1,1V36c-0.1,0-0.3,0-0.4,0c-1.2,0-1.7-0.4-2.2-1.5
		l-0.4-0.8c-0.4-0.8-0.5-0.8-1.1-0.8V33.8z"/>
</g>
</svg>
